<svg xmlns="http://www.w3.org/2000/svg" height="48" viewBox="0 96 960 960" width="48"><path d="M189 816q59-53 130.713-84t160.183-31q88.471 0 160.288 30Q712 761 771 814V285H189v531Zm293.364-169q59.234 0 100.435-41.429T624 503.636q0-59.234-41.08-99.935Q541.841 363 482.606 363q-59.235 0-100.92 40.58Q340 444.159 340 503.894q0 59.735 41.565 101.42Q423.129 647 482.364 647ZM189 958q-37.175 0-64.088-26.912Q98 904.175 98 867V285q0-37.588 26.912-64.794Q151.825 193 189 193h582q37.588 0 64.794 27.206Q863 247.412 863 285v582q0 37.175-27.206 64.088Q808.588 958 771 958H189Zm43-91h496v-4.288q-54.117-46.356-116.669-69.534Q548.78 770 480.39 770t-131.286 23.178Q286.208 816.356 232 862.318V867Zm249.529-288Q450 579 429.5 557.532 409 536.064 409 503.823 409 472 429.971 451.5q20.97-20.5 52.5-20.5Q514 431 534.5 452.073q20.5 21.074 20.5 52.751 0 31.676-20.971 52.926-20.97 21.25-52.5 21.25ZM480 549Z"/></svg>