<svg xmlns="http://www.w3.org/2000/svg" height="48" viewBox="0 96 960 960" width="48"><path d="M242 802q56-38 113.045-59.5 57.046-21.5 125-21.5Q548 721 604.5 742.5T719 802q42-47 66-103.086T809 576q0-137-96-233t-233-96q-137 0-233 96t-96 233q0 66.828 24 122.914T242 802Zm237.774-203Q427 599 391 562.774t-36-89Q355 421 391.226 385t89-36Q533 349 569 385.226t36 89Q605 527 568.774 563t-89 36Zm.694 341Q404 940 338.252 911.737t-115.5-78.5Q173 783 144.5 717.734q-28.5-65.266-28.5-142 0-74.734 28.711-140.647 28.71-65.914 78.464-116.237 49.754-50.324 115.056-78.587Q403.532 212 480.266 212q74.734 0 140.647 28.711 65.914 28.71 116 78.5Q787 369 815.5 434.951 844 500.903 844 575.532q0 76.468-28.263 142.216T737.15 833.037q-50.323 49.542-116.188 78.252Q555.097 940 480.468 940ZM480 905q55 0 111-19.5T691 827q-43.586-32.967-97.793-51.983Q539 756 480 756q-59 0-113.5 18.5T271 827.303q42 38.304 98 58Q425 905 480 905Zm.14-341Q518 564 544 537.86q26-26.139 26-64Q570 436 543.86 410q-26.139-26-64-26Q442 384 416 410.14q-26 26.139-26 64Q390 512 416.14 538q26.139 26 64 26Zm-.14-90Zm0 356Z"/></svg>