<svg xmlns="http://www.w3.org/2000/svg" height="48" viewBox="0 96 960 960" width="48"><path d="M44 802v-31q0-38.021 39-62.51Q122 684 184.376 684q3.165 0 9.395 1 6.229 1 14.229.652-7 17.348-10.5 33.024Q194 734.352 194 751v51H44Zm240 0v-47q0-23.835 12.978-43.603Q309.955 691.63 338 678q27.867-14 62.792-21t78.646-7q44.562 0 79.459 7 34.896 7 63.103 21 27 14 40.5 33.582Q676 731.165 676 755v47H284Zm482 0v-50.844q0-17.168-3.5-34.097-3.5-16.929-10.5-31.332 10 .273 15.729-.727 5.728-1 9.271-1 62.7 0 100.85 24.139Q916 732.278 916 771v31H766Zm-441-35h310v-13q-3-33-43-51t-112-18q-71 0-111.5 18.5T325 754v13ZM183.346 652Q162 652 147 636.807q-15-15.193-15-36.719Q132 579 147.193 564t36.719-15Q205 549 220.5 563.925t15.5 36.762Q236 621 221.124 636.5 206.248 652 183.346 652Zm593.265 0Q756 652 740.5 636.495 725 620.989 725 600.386 725 579 740.505 564q15.506-15 36.601-15Q799 549 814 563.925t15 36.464q0 21.236-14.8 36.423Q799.4 652 776.611 652Zm-295.787-32q-35.491 0-61.157-24.961Q394 570.079 394 534.421q0-35.571 25.417-60.996Q444.833 448 480.471 448q35.55 0 60.539 25.091Q566 498.182 566 533.882q0 35.785-24.888 60.951Q516.224 620 480.824 620Zm.527-35Q501 585 516 570.149t15-37.5Q531 513 515.851 498t-35.5-15Q459 483 444 498.149t-15 35.5Q429 555 443.851 570t37.5 15ZM480 767Zm0-233Z"/></svg>