<svg xmlns="http://www.w3.org/2000/svg" height="48" viewBox="0 96 960 960" width="48"><path d="M220 575 108 464l112-110 109 110-109 111Zm175 365V765.293q-60-5.293-119.494-13.75Q216.011 743.086 157 730l8-35q78.282 19 156.501 27 78.22 8 157.576 8 80.356 0 159.139-8Q717 714 796 695l7 35q-59.017 13.2-118.511 21.725Q624.994 760.25 565 764.61V940H395ZM220 526l60-62-60-61-63 61 63 62Zm259.824-140q-37.241 0-62.032-24.968Q393 336.064 393 298.823q0-37.24 24.968-62.531Q442.936 211 480.176 211q37.241 0 62.532 25.718Q568 262.436 568 299.177q0 37.24-25.718 62.031Q516.564 386 479.824 386Zm-.744 268q-28.48 0-47.78-19.689T412 587.08q0-28.48 19.22-47.78 19.221-19.3 47.7-19.3 28.48 0 47.78 19.22 19.3 19.221 19.3 47.2 0 27.98-19.22 47.78-19.221 19.8-47.7 19.8Zm.745-303q22.625 0 37.9-14.812Q533 321.376 533 299.175q0-22.625-15.105-37.9Q502.791 246 480.158 246q-22.633 0-37.395 15.105Q428 276.209 428 298.842q0 22.633 14.812 37.395Q457.624 351 479.825 351ZM687 571l-49-87 50-88h97l49 88-50 87h-97Zm19.333-35H765l30-52-29.333-53H707l-30 53 29.333 52ZM220 464Zm260-165Zm256 185Z"/></svg>